<svg width="20" height="21" viewBox="0 0 20 21" fill="none" xmlns="http://www.w3.org/2000/svg">
<path d="M9.74991 0C4.37723 0 0 4.46236 0 9.94855C0 12.451 0.892642 14.8047 2.5319 16.6422L1.82818 19.9409C1.67318 20.6909 2.44766 21.2391 3.0813 20.8947L6.14541 19.1886C7.27838 19.6524 8.48856 19.8886 9.75009 19.8886C15.1232 19.8886 19.5 15.4348 19.5 9.94897C19.5 4.46283 15.1226 0.000421993 9.75009 0.000421993L9.74991 0ZM10.3507 15.1197C10.0062 15.4709 9.46286 15.4484 9.1405 15.1197C8.79386 14.7467 8.80176 14.2313 9.1405 13.886C9.46361 13.5566 9.99397 13.5223 10.3507 13.886C10.6427 14.1837 10.7295 14.7336 10.3507 15.1197ZM10.9601 10.4647C10.7884 10.5346 10.6082 10.6835 10.6082 10.9109V11.4447C10.6082 11.9259 10.2221 12.3197 9.74989 12.3197C9.26927 12.3197 8.89155 11.926 8.89155 11.4447V10.9109C8.89155 10.0009 9.45802 9.1872 10.3334 8.83729C11.0544 8.54853 11.4664 7.79598 11.3376 7.00845C11.2347 6.36102 10.7025 5.80969 10.0672 5.68716C9.03253 5.48355 8.13611 6.27951 8.13611 7.29719C8.13611 7.7784 7.74996 8.17224 7.27777 8.17224C6.80575 8.17224 6.41943 7.77857 6.41943 7.29719C6.41943 5.15692 8.33314 3.56175 10.3932 3.96346C11.7236 4.22603 12.8136 5.36345 13.0367 6.7197C13.2946 8.32973 12.4449 9.86976 10.9601 10.4647Z" fill="#D5CFF5"/>
</svg>
