<svg width="16" height="13" viewBox="0 0 16 13" fill="none" xmlns="http://www.w3.org/2000/svg">
<path fill-rule="evenodd" clip-rule="evenodd" d="M9.36036 2.57563C9.07259 2.28451 9.07531 1.81523 9.36643 1.52746C9.65755 1.23969 10.1268 1.24241 10.4146 1.53353L14.8599 6.03067C15.1477 6.32179 15.145 6.79107 14.8539 7.07884C14.7999 7.1322 14.7398 7.17557 14.6758 7.20897L10.3474 11.4875C10.0431 11.7883 9.55257 11.7855 9.25177 11.4812C8.95096 11.1768 8.95381 10.6863 9.25812 10.3855L12.3579 7.32144L5.17703 7.27984C4.74207 7.27732 4.39151 6.92267 4.39403 6.48772C4.39655 6.05276 4.7512 5.7022 5.18616 5.70472L12.4953 5.74706L9.36036 2.57563Z" fill="#D5CFF5"/>
<path fill-rule="evenodd" clip-rule="evenodd" d="M1.23685 0.956131C1.67181 0.958651 2.02237 1.3133 2.01985 1.74825L1.9651 11.199C1.96258 11.634 1.60793 11.9845 1.17298 11.982C0.738018 11.9795 0.387457 11.6248 0.389977 11.1899L0.444728 1.73913C0.447248 1.30417 0.801894 0.953611 1.23685 0.956131Z" fill="#D5CFF5"/>
</svg>
