<svg width="26" height="19" viewBox="0 0 26 19" fill="none" xmlns="http://www.w3.org/2000/svg">
<g id="Group">
<path id="Vector" d="M14.329 6.72825C14.329 6.8113 14.2874 6.85291 14.2874 6.93596C14.2874 8.38952 16.9455 9.59399 20.1437 9.59399C23.3002 9.59399 26 8.34792 26 6.89435C26 5.44079 23.342 4.19471 20.1437 4.19471C18.3163 4.27776 14.62 4.94232 14.3294 6.72828L14.329 6.72825Z" fill="#D5CFF5"/>
<path id="Vector_2" d="M13.6644 13.5812V9.92625C12.5847 10.1754 11.4217 10.3001 10.2172 10.2584C10.8817 11.2968 11.2555 12.6259 11.1309 13.9134C12.0446 13.8719 12.8752 13.7889 13.6644 13.5812Z" fill="#D5CFF5"/>
<path id="Vector_3" d="M5.15015 7.55889C6.77003 7.51728 8.51433 8.22344 9.67715 9.59399C11.0062 9.71865 12.4184 9.63561 13.6229 9.30324V6.9774V6.85274C13.6645 6.47894 13.872 5.93906 14.2874 5.48219C11.5462 6.35446 6.85328 6.18819 4.94232 4.1531C5.06698 6.9358 4.90089 7.01882 5.15003 7.55889L5.15015 7.55889Z" fill="#D5CFF5"/>
<path id="Vector_4" d="M5.02552 2.94878C5.73153 5.8145 15.2427 6.43763 16.6547 2.94878C16.9038 0.789018 13.0414 0 10.8399 0C7.68337 0 4.98358 1.24608 4.98358 2.69964C4.98358 2.74107 5.0252 2.8243 5.0252 2.94878H5.02552Z" fill="#D5CFF5"/>
<path id="Vector_5" d="M13.6644 14.2038C12.8338 14.4116 11.9615 14.536 11.0478 14.536C10.7571 15.9898 9.96806 17.2359 8.88806 18.0665C9.511 18.1911 10.1755 18.2326 10.8401 18.2326C12.3353 18.2326 13.7889 17.9418 14.8688 17.485C13.0829 16.2389 13.8721 14.7853 13.6644 14.2038Z" fill="#D5CFF5"/>
<path id="Vector_6" d="M20.1433 10.2588C18.2743 10.2588 15.5747 9.80195 14.287 8.38978V11.2555C14.287 12.7091 16.9451 13.9551 20.1433 13.9551C23.2998 13.9551 25.9996 12.7091 25.9996 11.2555V8.38978C24.6707 9.80193 22.0541 10.2588 20.1433 10.2588Z" fill="#D5CFF5"/>
<path id="Vector_7" d="M14.2872 12.6674V15.5331C14.2872 16.3637 15.2009 16.9452 15.2425 16.9866C16.5716 17.9003 18.482 18.2327 20.1433 18.2327C23.2998 18.2327 25.9996 16.9866 25.9996 15.5331V12.6674C24.9613 13.7888 22.7601 14.5364 20.1433 14.5364C17.5266 14.5364 15.3255 13.7888 14.287 12.6674H14.2872Z" fill="#D5CFF5"/>
<path id="Vector_8" d="M5.15005 8.18177C2.32593 8.26481 0 10.5907 0 13.4147C0 16.3221 2.36744 18.6891 5.27442 18.6891C6.31277 18.6891 7.26806 18.3984 8.05713 17.8585C8.14017 17.8169 8.22322 17.7339 8.30626 17.6924C12.5841 14.6604 10.2583 8.05665 5.14976 8.18151L5.15005 8.18177ZM5.27471 13.124C6.06392 13.124 6.68686 13.747 6.68686 14.5362C6.68686 15.2007 6.23001 15.7823 5.6071 15.9067V16.6959H4.98416V15.9067C4.36122 15.7821 3.86275 15.2007 3.86275 14.5362H4.4855C4.4855 14.9516 4.85929 15.3254 5.27471 15.3254C5.69012 15.3254 6.06392 14.9516 6.06392 14.5362C6.06392 14.1208 5.69012 13.747 5.27471 13.747C4.4855 13.747 3.86255 13.124 3.86255 12.3348C3.86255 11.6703 4.3194 11.0887 4.98396 10.9643V10.1753H5.60691V10.9645C6.22985 11.0891 6.68667 11.6705 6.68667 12.335H6.06372C6.06372 11.9196 5.68993 11.5458 5.27451 11.5458C4.8591 11.5458 4.4853 11.9196 4.4853 12.335C4.48549 12.7502 4.85929 13.124 5.27471 13.124Z" fill="#D5CFF5"/>
</g>
</svg>
