<svg width="21" height="21" viewBox="0 0 21 21" fill="none" xmlns="http://www.w3.org/2000/svg">
<path d="M3.15351 18.2355C2.94867 18.2355 2.7644 18.0717 2.7644 17.8464C2.7644 17.4779 2.80539 16.843 2.92824 16.1263L1.82251 15C0.20485 16.9044 0.0204411 19.628 0 20.6109C0 20.8157 0.16384 21 0.389113 21C1.37201 20.9796 4.09557 20.7952 6 19.1775L4.87354 18.0716C4.1569 18.1945 3.52218 18.2149 3.15351 18.2355Z" fill="#D5CFF5"/>
<path d="M16.4778 13.6232L16.435 13.5111C21.2239 8.19659 21.1383 2.70272 20.9246 0.841529C20.8818 0.437978 20.5825 0.123882 20.1977 0.079154C18.4233 -0.14515 13.1854 -0.234774 8.1186 4.78819L8.033 4.76567C6.36545 3.9584 4.41992 4.33957 3.11585 5.68509L1.25591 7.63593C0.828374 8.08437 0.956617 8.8244 1.49109 9.07107L4.50556 10.5285L3.47941 12.2327C3.24423 12.6363 3.28703 13.1745 3.62913 13.5333L8.11871 18.2424C8.43934 18.5786 8.95249 18.6459 9.35869 18.3994L10.9835 17.3231L12.373 20.4849C12.6295 21.0455 13.335 21.18 13.7413 20.7316L15.6012 18.7807C16.9053 17.4127 17.2474 15.3497 16.4778 13.6232ZM12.2234 9.22813C11.3254 8.28632 11.3254 6.78396 12.2234 5.84215C13.1213 4.90034 14.5536 4.90034 15.4515 5.84215C16.3495 6.78396 16.3281 8.28632 15.4515 9.22813C14.575 10.1476 13.1213 10.1476 12.2234 9.22813Z" fill="#D5CFF5"/>
</svg>
