<svg width="21" height="21" viewBox="0 0 21 21" fill="none" xmlns="http://www.w3.org/2000/svg">
<path fill-rule="evenodd" clip-rule="evenodd" d="M16 8C16 3.58172 12.4183 0 8 0C3.58172 0 0 3.58172 0 8C0 12.4183 3.58172 16 8 16C9.67014 16 11.2207 15.4882 12.5035 14.6129C12.5368 14.6541 12.5726 14.6939 12.6109 14.7322L17.5606 19.682C18.1464 20.2678 19.0962 20.2678 19.682 19.682C20.2677 19.0962 20.2677 18.1464 19.682 17.5607L14.7322 12.6109C14.6939 12.5726 14.6541 12.5368 14.6129 12.5036C15.4882 11.2208 16 9.67015 16 8ZM2.5 8C2.5 4.96243 4.96243 2.5 8 2.5C11.0376 2.5 13.5 4.96243 13.5 8C13.5 11.0376 11.0376 13.5 8 13.5C4.96243 13.5 2.5 11.0376 2.5 8Z" fill="#D1C2FF" fill-opacity="0.7"/>
</svg>
