<svg xmlns="http://www.w3.org/2000/svg" viewBox="0 0 64 64" width="30" height="30"><title>custom</title><g class="nc-icon-wrapper" fill="#d5cff5"><path d="M60,56V8a4,4,0,0,0-4-4H8A4,4,0,0,0,4,8V56a4,4,0,0,0,4,4H56A4,4,0,0,0,60,56ZM47,12V37a1,1,0,0,1-2,0V12a1,1,0,0,1,2,0ZM33,12v7h5a1,1,0,0,1,1,1v2a1,1,0,0,1-1,1H26a1,1,0,0,1-1-1V20a1,1,0,0,1,1-1h5V12a1,1,0,0,1,2,0ZM17,37V12a1,1,0,0,1,2,0V37a1,1,0,0,1-2,0Zm0,15V45H12a1,1,0,0,1-1-1V42a1,1,0,0,1,1-1H24a1,1,0,0,1,1,1v2a1,1,0,0,1-1,1H19v7a1,1,0,0,1-2,0Zm14,0V27a1,1,0,0,1,2,0V52a1,1,0,0,1-2,0Zm14,0V45H40a1,1,0,0,1-1-1V42a1,1,0,0,1,1-1H52a1,1,0,0,1,1,1v2a1,1,0,0,1-1,1H47v7a1,1,0,0,1-2,0Z" fill="#d5cff5"/></g></svg>