<svg xmlns="http://www.w3.org/2000/svg" viewBox="0 0 64 64" width="30" height="30"><title>global groove</title><g class="nc-icon-wrapper" fill="#d5cff5"><path d="M24.243,44.243h0L14.5,34.5a3.624,3.624,0,0,0-5,0,3.54,3.54,0,0,0,0,5L17,47a1,1,0,1,1-1.414,1.414l-7.5-7.5A5.534,5.534,0,0,1,8,33.191V22.5a3.5,3.5,0,0,0-7,0V41.78a6,6,0,0,0,1.444,3.905L13,58v4a1,1,0,0,0,1,1H25a1,1,0,0,0,1-1V48.485A6,6,0,0,0,24.243,44.243Z" fill="#d5cff5"/> <path d="M39.757,44.243h0L49.5,34.5a3.624,3.624,0,0,1,5,0,3.54,3.54,0,0,1,0,5L47,47a1,1,0,1,0,1.414,1.414l7.5-7.5A5.534,5.534,0,0,0,56,33.191V22.5a3.5,3.5,0,0,1,7,0V41.78a6,6,0,0,1-1.444,3.905L51,58v4a1,1,0,0,1-1,1H39a1,1,0,0,1-1-1V48.485A6,6,0,0,1,39.757,44.243Z" fill="#d5cff5"/> <path data-color="color-2" d="M32,1A16,16,0,1,0,48,17,16.047,16.047,0,0,0,32,1Zm0,30a13.548,13.548,0,0,1-9.5-3.8c0-.1.1-.1.1-.2a5.9,5.9,0,0,0,0-6.5A15.757,15.757,0,0,0,21.4,19c-.7-.7-1.4-1.5-1.4-2,0-.3,1.4-1,2-1.3a8.306,8.306,0,0,0,3.2-2.2c1.6-2.1.3-5.8-.4-6.9A4.44,4.44,0,0,0,24,5.5,14.09,14.09,0,0,1,31.1,3a3.039,3.039,0,0,0,.7.5,9.767,9.767,0,0,1,1.4,1.1c.3.5.5,1,.7,1.4a3.525,3.525,0,0,0,2.7,2.7c.2.3.4.3.7.3A10.28,10.28,0,0,0,42,7.2,13.832,13.832,0,0,1,46,17,14.041,14.041,0,0,1,32,31Z"/> <path data-color="color-2" d="M36.8,13.1a6.551,6.551,0,0,0-4.9,2.1,3.608,3.608,0,0,0-.9,3.1,16.725,16.725,0,0,1,.3,5.2c-.1,1.4-.2,2.6,1.4,3.8a2.458,2.458,0,0,0,1.7.5c1.4,0,3.1-.9,4.7-2.5,1.7-1.7,3.5-4.5,3.5-7.1A5.629,5.629,0,0,0,36.8,13.1Z"/></g></svg>