<svg xmlns="http://www.w3.org/2000/svg" viewBox="0 0 64 64" width="30" height="30"><title>moon cloud rain</title><g class="nc-icon-wrapper" fill="#d5cff5"><path fill="#d5cff5" d="M51.091,25.182c-2.026,0-3.996,0.517-5.764,1.504C42.821,20.844,37.065,17,30.637,17 c-6.025,0-11.519,3.394-14.243,8.721c-1.147-0.358-2.315-0.539-3.484-0.539C6.343,25.182,1,30.524,1,37.091S6.343,49,12.909,49H23 v-7c0-0.552,0.447-1,1-1s1,0.448,1,1v7h14v-7c0-0.552,0.447-1,1-1s1,0.448,1,1v7h10.091C57.657,49,63,43.658,63,37.091 S57.657,25.182,51.091,25.182z"/> <path data-color="color-2" d="M23,49v7c0,0.552,0.447,1,1,1s1-0.448,1-1v-7H23z"/> <path data-color="color-2" d="M39,49v7c0,0.552,0.447,1,1,1s1-0.448,1-1v-7H39z"/> <path data-color="color-2" d="M32,52c-0.552,0-1,0.448-1,1v7c0,0.552,0.447,1,1,1s1-0.448,1-1v-7 C33,52.448,32.552,52,32,52L32,52z"/> <path data-color="color-2" d="M30.637,15c6.511,0,12.438,3.497,15.614,9.061c1.545-0.578,3.188-0.879,4.84-0.879 c3.295,0,6.322,1.157,8.707,3.079C60.583,24.278,61,22.158,61,20c0-0.827-0.075-1.706-0.231-2.688 c-0.044-0.282-0.207-0.531-0.447-0.686c-0.241-0.155-0.54-0.197-0.81-0.121C58.342,16.834,57.16,17,56,17 c-7.096,0-12.925-5.774-12.993-12.873c-0.003-0.285-0.127-0.556-0.342-0.743s-0.493-0.273-0.782-0.239 c-6.852,0.854-12.36,5.67-14.214,12.107C28.639,15.091,29.63,15,30.637,15z"/></g></svg>