<svg xmlns="http://www.w3.org/2000/svg" viewBox="0 0 64 64" width="30" height="30"><title>rap beats</title><g class="nc-icon-wrapper" fill="#d5cff5"><path d="M61,12H3a2,2,0,0,0-2,2V50a2,2,0,0,0,2,2H61a2,2,0,0,0,2-2V14A2,2,0,0,0,61,12ZM39,20H54a1,1,0,0,1,0,2H39a1,1,0,0,1,0-2ZM18,19a2,2,0,1,1-2,2A2,2,0,0,1,18,19Zm-8,0a2,2,0,1,1-2,2A2,2,0,0,1,10,19ZM61,50H3V30H7V42a1,1,0,0,0,1,1H9a1,1,0,0,0,1-1V30h3V42a1,1,0,0,0,1,1h1a1,1,0,0,0,1-1V30h3V42a1,1,0,0,0,1,1h1a1,1,0,0,0,1-1V30h5V42a1,1,0,0,0,1,1h1a1,1,0,0,0,1-1V30h3V42a1,1,0,0,0,1,1h1a1,1,0,0,0,1-1V30h6V42a1,1,0,0,0,1,1h1a1,1,0,0,0,1-1V30h3V42a1,1,0,0,0,1,1h1a1,1,0,0,0,1-1V30h3V42a1,1,0,0,0,1,1h1a1,1,0,0,0,1-1V30h4Z" fill="#d5cff5"/></g></svg>