<svg xmlns="http://www.w3.org/2000/svg" viewBox="0 0 64 64" width="30" height="30"><title>relaxing meditation</title><g class="nc-icon-wrapper" fill="#d5cff5"><path data-color="color-2" d="M17.005,52.206A21.509,21.509,0,0,1,10,35.8c0-4.683,2.426-10.163,5.558-15.287-5.364-2.238-9.833-3.581-10.248-3.7a1,1,0,0,0-1.252.707c-.253.97-6.147,23.88-.872,33.232a17.409,17.409,0,0,0,11.451,8.806A17.733,17.733,0,0,0,18.6,60a18.284,18.284,0,0,0,8.936-2.327c.059-.033.113-.074.171-.107A22.474,22.474,0,0,1,17.005,52.206Z"/> <path data-color="color-2" d="M47,52.206A21.509,21.509,0,0,0,54,35.8c0-4.683-2.426-10.163-5.558-15.287,5.364-2.238,9.833-3.581,10.248-3.7a1,1,0,0,1,1.252.707c.253.97,6.147,23.88.872,33.232a17.409,17.409,0,0,1-11.451,8.806A17.733,17.733,0,0,1,45.4,60a18.284,18.284,0,0,1-8.936-2.327c-.059-.033-.113-.074-.171-.107A22.474,22.474,0,0,0,47,52.206Z"/> <path d="M32.719,5.305a1.03,1.03,0,0,0-1.438,0C30.535,6.076,13,24.327,13,35.8a18.579,18.579,0,0,0,6.026,14.189,19.3,19.3,0,0,0,25.948,0A18.579,18.579,0,0,0,51,35.8C51,24.327,33.465,6.076,32.719,5.305Z" fill="#d5cff5"/></g></svg>